<?xml version="1.0" encoding="UTF-8" standalone="no"?>
<!DOCTYPE svg PUBLIC "-//W3C//DTD SVG 1.1//EN" "http://www.w3.org/Graphics/SVG/1.1/DTD/svg11.dtd">
<svg width="100%" height="100%" viewBox="0 0 4213 4071" version="1.1" xmlns="http://www.w3.org/2000/svg" xmlns:xlink="http://www.w3.org/1999/xlink" xml:space="preserve" xmlns:serif="http://www.serif.com/" style="fill-rule:evenodd;clip-rule:evenodd;stroke-linecap:round;stroke-linejoin:round;stroke-miterlimit:1.5;">
    <g transform="matrix(1,0,0,1,-815.586519,-445.1321)">
        <g transform="matrix(1,0,0,1,30.246709,-345.552131)">
            <g transform="matrix(1,0,0,1.075997,1103.526281,-29.870105)">
                <path d="M2737.826,1195.921C2785.969,1195.921 2832.14,1213.695 2866.182,1245.333C2900.225,1276.97 2919.349,1319.881 2919.349,1364.623L2919.349,4163.459C2919.349,4208.201 2900.225,4251.112 2866.182,4282.75C2832.14,4314.387 2785.969,4332.161 2737.826,4332.161L946.996,4332.161C898.853,4332.161 852.681,4314.387 818.639,4282.75C784.597,4251.112 765.472,4208.201 765.472,4163.459C765.472,3618.563 765.472,1909.52 765.472,1364.623C765.472,1319.881 784.597,1276.97 818.639,1245.333C852.681,1213.695 898.853,1195.921 946.996,1195.921L2737.826,1195.921Z" style="fill:white;stroke:black;stroke-width:40.11px;"/>
            </g>
            <g transform="matrix(1,0,0,1,1012.001743,0)">
                <path d="M2420.541,811.518C2487.095,811.518 2541.048,865.471 2541.048,932.025C2541.048,1063.938 2541.048,1256.937 2541.048,1256.937L1326.823,1256.937L1326.823,932.025C1326.823,865.471 1380.775,811.518 1447.33,811.518C1679.866,811.518 2188.005,811.518 2420.541,811.518Z" style="stroke:black;stroke-width:41.67px;"/>
            </g>
            <g transform="matrix(1,0,0,1,1201.152454,-167.794985)">
                <rect x="802.082" y="2013.54" width="1885.405" height="1269.14" style="stroke:black;stroke-width:41.67px;"/>
            </g>
            <g transform="matrix(2.055605,0,0,2.055605,-590.602406,-4390.223161)">
                <g transform="matrix(50,0,0,50,1845.461545,3532.847139)">
                    <path d="M0.236,-0L0.236,-0.59L0.004,-0.59L0.004,-0.7L0.598,-0.7L0.598,-0.59L0.366,-0.59L0.366,-0L0.236,-0Z" style="fill:white;fill-rule:nonzero;"/>
                </g>
                <g transform="matrix(50,0,0,50,1875.561545,3532.847139)">
                    <path d="M0.094,-0L0.094,-0.7L0.201,-0.7L0.507,-0.189L0.451,-0.189L0.752,-0.7L0.859,-0.7L0.86,-0L0.737,-0L0.736,-0.507L0.762,-0.507L0.506,-0.08L0.448,-0.08L0.188,-0.507L0.218,-0.507L0.218,-0L0.094,-0Z" style="fill:white;fill-rule:nonzero;"/>
                </g>
                <g transform="matrix(50,0,0,50,1923.311545,3532.847139)">
                </g>
            </g>
            <g transform="matrix(5.919816,0,0,5.919816,-8361.550173,-12092.715865)">
                <g transform="matrix(50,0,0,50,1814.953366,2489.467414)">
                    <path d="M0.418,0.01C0.364,0.01 0.315,0.001 0.269,-0.017C0.224,-0.034 0.184,-0.059 0.15,-0.092C0.117,-0.124 0.091,-0.162 0.072,-0.206C0.053,-0.25 0.044,-0.298 0.044,-0.35C0.044,-0.402 0.053,-0.45 0.072,-0.494C0.091,-0.538 0.117,-0.576 0.151,-0.608C0.185,-0.641 0.224,-0.666 0.27,-0.683C0.316,-0.701 0.365,-0.71 0.419,-0.71C0.476,-0.71 0.528,-0.7 0.576,-0.68C0.623,-0.661 0.663,-0.632 0.696,-0.593L0.612,-0.514C0.587,-0.541 0.558,-0.562 0.527,-0.576C0.495,-0.59 0.461,-0.596 0.425,-0.596C0.389,-0.596 0.355,-0.59 0.325,-0.578C0.294,-0.566 0.268,-0.549 0.245,-0.527C0.223,-0.505 0.206,-0.479 0.193,-0.449C0.181,-0.419 0.175,-0.386 0.175,-0.35C0.175,-0.314 0.181,-0.281 0.193,-0.251C0.206,-0.221 0.223,-0.195 0.245,-0.173C0.268,-0.151 0.294,-0.134 0.325,-0.122C0.355,-0.11 0.389,-0.104 0.425,-0.104C0.461,-0.104 0.495,-0.11 0.527,-0.124C0.558,-0.138 0.587,-0.159 0.612,-0.187L0.696,-0.107C0.663,-0.069 0.623,-0.04 0.576,-0.02C0.528,-0 0.476,0.01 0.418,0.01Z" style="fill:white;fill-rule:nonzero;"/>
                </g>
                <g transform="matrix(50,0,0,50,1849.153366,2489.467414)">
                    <path d="M0.422,0.01C0.367,0.01 0.317,0.001 0.271,-0.017C0.225,-0.035 0.185,-0.06 0.151,-0.093C0.117,-0.125 0.091,-0.163 0.072,-0.207C0.053,-0.25 0.044,-0.298 0.044,-0.35C0.044,-0.402 0.053,-0.45 0.072,-0.493C0.091,-0.537 0.117,-0.575 0.151,-0.607C0.185,-0.64 0.225,-0.665 0.271,-0.683C0.317,-0.701 0.367,-0.71 0.421,-0.71C0.476,-0.71 0.526,-0.701 0.572,-0.683C0.617,-0.665 0.657,-0.64 0.691,-0.608C0.725,-0.576 0.751,-0.538 0.77,-0.494C0.789,-0.45 0.798,-0.402 0.798,-0.35C0.798,-0.298 0.789,-0.25 0.77,-0.206C0.751,-0.162 0.725,-0.124 0.691,-0.092C0.657,-0.06 0.617,-0.035 0.572,-0.017C0.526,0.001 0.476,0.01 0.422,0.01ZM0.421,-0.104C0.457,-0.104 0.489,-0.11 0.519,-0.122C0.549,-0.134 0.575,-0.151 0.597,-0.173C0.619,-0.195 0.636,-0.222 0.649,-0.252C0.661,-0.281 0.667,-0.314 0.667,-0.35C0.667,-0.386 0.661,-0.419 0.649,-0.449C0.636,-0.478 0.619,-0.504 0.597,-0.527C0.575,-0.549 0.549,-0.566 0.519,-0.578C0.489,-0.59 0.457,-0.596 0.421,-0.596C0.386,-0.596 0.353,-0.59 0.323,-0.578C0.293,-0.566 0.267,-0.549 0.245,-0.526C0.223,-0.504 0.206,-0.478 0.193,-0.448C0.181,-0.419 0.175,-0.386 0.175,-0.35C0.175,-0.315 0.181,-0.282 0.193,-0.252C0.205,-0.222 0.223,-0.196 0.245,-0.173C0.267,-0.151 0.293,-0.134 0.323,-0.122C0.353,-0.11 0.386,-0.104 0.421,-0.104Z" style="fill:white;fill-rule:nonzero;"/>
                </g>
                <g transform="matrix(50,0,0,50,1891.253366,2489.467414)">
                    <path d="M0.094,-0L0.094,-0.7L0.201,-0.7L0.64,-0.161L0.587,-0.161L0.587,-0.7L0.716,-0.7L0.716,-0L0.609,-0L0.17,-0.539L0.223,-0.539L0.223,-0L0.094,-0Z" style="fill:white;fill-rule:nonzero;"/>
                </g>
                <g transform="matrix(50,0,0,50,1931.753366,2489.467414)">
                    <path d="M0.236,-0L0.236,-0.59L0.004,-0.59L0.004,-0.7L0.598,-0.7L0.598,-0.59L0.366,-0.59L0.366,-0L0.236,-0Z" style="fill:white;fill-rule:nonzero;"/>
                </g>
                <g transform="matrix(50,0,0,50,1961.853366,2489.467414)">
                    <path d="M0.094,-0L0.094,-0.7L0.381,-0.7C0.474,-0.7 0.547,-0.678 0.6,-0.634C0.653,-0.59 0.68,-0.529 0.68,-0.451C0.68,-0.4 0.668,-0.356 0.644,-0.319C0.62,-0.282 0.586,-0.253 0.541,-0.234C0.497,-0.214 0.444,-0.204 0.382,-0.204L0.166,-0.204L0.224,-0.263L0.224,-0L0.094,-0ZM0.552,-0L0.375,-0.254L0.514,-0.254L0.692,-0L0.552,-0ZM0.224,-0.249L0.166,-0.311L0.376,-0.311C0.433,-0.311 0.476,-0.324 0.505,-0.348C0.535,-0.373 0.549,-0.407 0.549,-0.451C0.549,-0.495 0.535,-0.53 0.505,-0.554C0.476,-0.578 0.433,-0.59 0.376,-0.59L0.166,-0.59L0.224,-0.654L0.224,-0.249Z" style="fill:white;fill-rule:nonzero;"/>
                </g>
                <g transform="matrix(50,0,0,50,1998.403366,2489.467414)">
                    <path d="M-0.005,-0L0.31,-0.7L0.438,-0.7L0.754,-0L0.618,-0L0.347,-0.631L0.399,-0.631L0.129,-0L-0.005,-0ZM0.14,-0.162L0.175,-0.264L0.553,-0.264L0.588,-0.162L0.14,-0.162Z" style="fill:white;fill-rule:nonzero;"/>
                </g>
                <g transform="matrix(50,0,0,50,2035.853366,2489.467414)">
                    <path d="M0.311,0.01C0.256,0.01 0.204,0.002 0.154,-0.014C0.104,-0.029 0.064,-0.049 0.035,-0.074L0.08,-0.175C0.108,-0.153 0.143,-0.134 0.184,-0.12C0.226,-0.105 0.268,-0.098 0.311,-0.098C0.348,-0.098 0.377,-0.102 0.4,-0.11C0.423,-0.118 0.439,-0.129 0.45,-0.142C0.461,-0.156 0.466,-0.172 0.466,-0.189C0.466,-0.21 0.458,-0.227 0.443,-0.24C0.428,-0.253 0.408,-0.263 0.384,-0.271C0.359,-0.279 0.332,-0.287 0.303,-0.293C0.273,-0.3 0.243,-0.307 0.213,-0.316C0.184,-0.325 0.157,-0.337 0.132,-0.352C0.108,-0.366 0.088,-0.385 0.073,-0.409C0.058,-0.433 0.05,-0.464 0.05,-0.501C0.05,-0.539 0.06,-0.574 0.081,-0.605C0.101,-0.637 0.132,-0.662 0.173,-0.681C0.215,-0.7 0.268,-0.71 0.332,-0.71C0.374,-0.71 0.416,-0.705 0.457,-0.694C0.498,-0.683 0.534,-0.668 0.565,-0.648L0.524,-0.547C0.493,-0.566 0.46,-0.58 0.427,-0.589C0.394,-0.598 0.362,-0.602 0.331,-0.602C0.295,-0.602 0.266,-0.598 0.243,-0.589C0.221,-0.581 0.204,-0.569 0.194,-0.555C0.184,-0.541 0.179,-0.525 0.179,-0.507C0.179,-0.486 0.186,-0.468 0.201,-0.456C0.217,-0.443 0.236,-0.433 0.261,-0.425C0.285,-0.418 0.312,-0.41 0.342,-0.404C0.372,-0.397 0.401,-0.389 0.431,-0.38C0.461,-0.372 0.488,-0.36 0.512,-0.346C0.537,-0.332 0.556,-0.313 0.572,-0.289C0.587,-0.265 0.594,-0.235 0.594,-0.198C0.594,-0.161 0.584,-0.126 0.564,-0.095C0.543,-0.063 0.512,-0.038 0.47,-0.019C0.428,0 0.375,0.01 0.311,0.01Z" style="fill:white;fill-rule:nonzero;"/>
                </g>
                <g transform="matrix(50,0,0,50,2067.303366,2489.467414)">
                </g>
                <g transform="matrix(50,0,0,50,1814.953366,2550.417414)">
                    <path d="M0.236,-0L0.236,-0.59L0.004,-0.59L0.004,-0.7L0.598,-0.7L0.598,-0.59L0.366,-0.59L0.366,-0L0.236,-0Z" style="fill:white;fill-rule:nonzero;"/>
                </g>
                <g transform="matrix(50,0,0,50,1845.053366,2550.417414)">
                    <path d="M0.094,-0L0.094,-0.7L0.605,-0.7L0.605,-0.591L0.224,-0.591L0.224,-0.109L0.619,-0.109L0.619,-0L0.094,-0ZM0.214,-0.302L0.214,-0.409L0.562,-0.409L0.562,-0.302L0.214,-0.302Z" style="fill:white;fill-rule:nonzero;"/>
                </g>
                <g transform="matrix(50,0,0,50,1878.553366,2550.417414)">
                    <path d="M0.418,0.01C0.364,0.01 0.315,0.001 0.269,-0.017C0.224,-0.034 0.184,-0.059 0.15,-0.092C0.117,-0.124 0.091,-0.162 0.072,-0.206C0.053,-0.25 0.044,-0.298 0.044,-0.35C0.044,-0.402 0.053,-0.45 0.072,-0.494C0.091,-0.538 0.117,-0.576 0.151,-0.608C0.185,-0.641 0.224,-0.666 0.27,-0.683C0.316,-0.701 0.365,-0.71 0.419,-0.71C0.476,-0.71 0.528,-0.7 0.576,-0.68C0.623,-0.661 0.663,-0.632 0.696,-0.593L0.612,-0.514C0.587,-0.541 0.558,-0.562 0.527,-0.576C0.495,-0.59 0.461,-0.596 0.425,-0.596C0.389,-0.596 0.355,-0.59 0.325,-0.578C0.294,-0.566 0.268,-0.549 0.245,-0.527C0.223,-0.505 0.206,-0.479 0.193,-0.449C0.181,-0.419 0.175,-0.386 0.175,-0.35C0.175,-0.314 0.181,-0.281 0.193,-0.251C0.206,-0.221 0.223,-0.195 0.245,-0.173C0.268,-0.151 0.294,-0.134 0.325,-0.122C0.355,-0.11 0.389,-0.104 0.425,-0.104C0.461,-0.104 0.495,-0.11 0.527,-0.124C0.558,-0.138 0.587,-0.159 0.612,-0.187L0.696,-0.107C0.663,-0.069 0.623,-0.04 0.576,-0.02C0.528,-0 0.476,0.01 0.418,0.01Z" style="fill:white;fill-rule:nonzero;"/>
                </g>
                <g transform="matrix(50,0,0,50,1914.453366,2550.417414)">
                    <path d="M0.586,-0L0.586,-0.7L0.716,-0.7L0.716,-0L0.586,-0ZM0.094,-0L0.094,-0.7L0.224,-0.7L0.224,-0L0.094,-0ZM0.213,-0.3L0.213,-0.411L0.596,-0.411L0.596,-0.3L0.213,-0.3Z" style="fill:white;fill-rule:nonzero;"/>
                </g>
                <g transform="matrix(50,0,0,50,1954.953366,2550.417414)">
                </g>
            </g>
            <g transform="matrix(1,0,0,1,-87.739708,-445.663113)">
                <circle cx="4587.844" cy="1957.119" r="477.229" style="fill:white;stroke:black;stroke-width:41.67px;"/>
            </g>
            <g transform="matrix(0.89034,0.455297,-0.455297,0.89034,1718.607979,149.66653)">
                <rect x="1145.602" y="3386.651" width="857.632" height="857.632" style="fill:rgb(216,216,216);stroke:black;stroke-width:41.67px;"/>
            </g>
        </g>
    </g>
</svg>
